<svg width="64" height="64" viewBox="0 0 64 64" fill="none" xmlns="http://www.w3.org/2000/svg">
<path d="M22.211 1.105L19.764 6H10C8.896 6 8 6.896 8 8V62C8 63.104 8.896 64 10 64H54C55.104 64 56 63.104 56 62V8C56 6.896 55.104 6 54 6H44.236L41.789 1.105C41.45 0.428 40.758 0 40 0H24C23.242 0 22.55 0.428 22.211 1.105ZM52 10V60H12V10H17.764L16.211 13.105C15.901 13.725 15.935 14.461 16.299 15.051C16.663 15.641 17.307 16 18 16H46C46.008 16 46.015 16 46.02 16C47.125 16 48.02 15.104 48.02 14C48.02 13.582 47.892 13.194 47.673 12.874L46.236 10H52ZM38.764 4L42.764 12H21.236L25.236 4H38.764Z" fill="white"/>
<path d="M40 32H34V26C34 24.896 33.104 24 32 24C30.896 24 30 24.896 30 26V32H24C22.896 32 22 32.896 22 34C22 35.104 22.896 36 24 36H30V42C30 43.104 30.896 44 32 44C33.104 44 34 43.104 34 42V36H40C41.104 36 42 35.104 42 34C42 32.896 41.104 32 40 32Z" fill="white"/>
</svg>
