<svg width="48" height="64" viewBox="0 0 48 64" fill="none" xmlns="http://www.w3.org/2000/svg">
<path d="M31 0H17C15.896 0 15 0.896 15 2V8H2C0.896 8 0 8.896 0 10C0 11.104 0.896 12 2 12H4V62C4 63.104 4.896 64 6 64H42C43.104 64 44 63.104 44 62V12H46C47.104 12 48 11.104 48 10C48 8.896 47.104 8 46 8H33V2C33 0.896 32.104 0 31 0ZM40 12V60H8V12H40ZM19 8V4H29V8H19Z" fill="white"/>
<path d="M18 56C19.104 56 20 55.104 20 54V20C20 18.896 19.104 18 18 18C16.896 18 16 18.896 16 20V54C16 55.104 16.896 56 18 56Z" fill="white"/>
<path d="M30 56C31.104 56 32 55.104 32 54V20C32 18.896 31.104 18 30 18C28.896 18 28 18.896 28 20V54C28 55.104 28.896 56 30 56Z" fill="white"/>
</svg>
