<svg width="64" height="64" viewBox="0 0 64 64" fill="none" xmlns="http://www.w3.org/2000/svg">
<g clip-path="url(#clip0_1_15)">
<path d="M3.161 63.357C3.632 63.357 4.129 63.242 4.64 63.015L18.986 56.639C20.22 56.09 21.873 54.955 22.829 53.999L62 14.829C62.754 14.075 63.17 13.07 63.17 12C63.17 10.93 62.754 9.92499 62 9.17199L54.828 1.99899C54.074 1.24599 53.07 0.830994 52 0.830994C50.93 0.830994 49.926 1.24599 49.172 1.99999L9 42.171C8.032 43.138 6.91 44.822 6.388 46.088L0.911998 59.389C0.317998 60.833 0.737998 61.809 1.041 62.262C1.507 62.958 2.28 63.357 3.161 63.357ZM20 51.171L12.828 44L46 10.828L53.172 18L20 51.171ZM52 4.82799L59.172 12L56 15.172L48.828 7.99999L52 4.82799ZM10.088 47.611C10.147 47.469 10.226 47.308 10.314 47.142L16.527 53.355L5.751 58.143L10.088 47.611Z" fill="white"/>
</g>
<defs>
<clipPath id="clip0_1_15">
<rect width="64" height="64" fill="white"/>
</clipPath>
</defs>
</svg>
